<svg width="14" height="8" viewBox="0 0 14 8" fill="none" xmlns="http://www.w3.org/2000/svg">
<path d="M3 1.5V0H13.5V1.5H3ZM3 4.5V3H13.5V4.5H3ZM3 7.5V6H13.5V7.5H3ZM0.75 1.5C0.5375 1.5 0.359375 1.42812 0.215625 1.28437C0.071875 1.14062 0 0.9625 0 0.75C0 0.5375 0.071875 0.359375 0.215625 0.215625C0.359375 0.071875 0.5375 0 0.75 0C0.9625 0 1.14062 0.071875 1.28437 0.215625C1.42812 0.359375 1.5 0.5375 1.5 0.75C1.5 0.9625 1.42812 1.14062 1.28437 1.28437C1.14062 1.42812 0.9625 1.5 0.75 1.5ZM0.75 4.5C0.5375 4.5 0.359375 4.42813 0.215625 4.28438C0.071875 4.14062 0 3.9625 0 3.75C0 3.5375 0.071875 3.35938 0.215625 3.21563C0.359375 3.07188 0.5375 3 0.75 3C0.9625 3 1.14062 3.07188 1.28437 3.21563C1.42812 3.35938 1.5 3.5375 1.5 3.75C1.5 3.9625 1.42812 4.14062 1.28437 4.28438C1.14062 4.42813 0.9625 4.5 0.75 4.5ZM0.75 7.5C0.5375 7.5 0.359375 7.42813 0.215625 7.28438C0.071875 7.14062 0 6.9625 0 6.75C0 6.5375 0.071875 6.35938 0.215625 6.21562C0.359375 6.07187 0.5375 6 0.75 6C0.9625 6 1.14062 6.07187 1.28437 6.21562C1.42812 6.35938 1.5 6.5375 1.5 6.75C1.5 6.9625 1.42812 7.14062 1.28437 7.28438C1.14062 7.42813 0.9625 7.5 0.75 7.5Z" fill="#514537"/>
</svg>
